<?xml version="1.0" encoding="UTF-8" standalone="no"?>
<svg
   width="64"
   height="64"
   viewBox="0 0 64 64"
   fill="none"
   version="1.1"
   id="svg552"
   sodipodi:docname="icon-m-frontcam.svg"
   inkscape:version="1.2.2 (b0a8486541, 2022-12-01)"
   xmlns:inkscape="http://www.inkscape.org/namespaces/inkscape"
   xmlns:sodipodi="http://sodipodi.sourceforge.net/DTD/sodipodi-0.dtd"
   xmlns="http://www.w3.org/2000/svg"
   xmlns:svg="http://www.w3.org/2000/svg">
  <defs
     id="defs556" />
  <sodipodi:namedview
     id="namedview554"
     pagecolor="#ffffff"
     bordercolor="#666666"
     borderopacity="1.0"
     inkscape:showpageshadow="2"
     inkscape:pageopacity="0"
     inkscape:pagecheckerboard="0"
     inkscape:deskcolor="#d1d1d1"
     showgrid="false"
     inkscape:zoom="3.6875"
     inkscape:cx="32"
     inkscape:cy="32.135593"
     inkscape:window-width="1366"
     inkscape:window-height="716"
     inkscape:window-x="0"
     inkscape:window-y="0"
     inkscape:window-maximized="1"
     inkscape:current-layer="svg552" />
  <path
     fill-rule="evenodd"
     clip-rule="evenodd"
     d="M52 14H12C9.79086 14 8 15.7909 8 18V46C8 48.2091 9.79086 50 12 50H52C54.2091 50 56 48.2091 56 46V18C56 15.7909 54.2091 14 52 14ZM12 12C8.68629 12 6 14.6863 6 18V46C6 49.3137 8.68629 52 12 52H52C55.3137 52 58 49.3137 58 46V18C58 14.6863 55.3137 12 52 12H12Z"
     fill="white"
     id="path546" />
  <path
     opacity="0.4"
     fill-rule="evenodd"
     clip-rule="evenodd"
     d="m 18.784966,30.743559 c 3.693476,0 6.687647,-2.994171 6.687647,-6.687647 0,-3.693475 -2.994171,-6.687646 -6.687647,-6.687646 -3.693475,0 -6.687646,2.994171 -6.687646,6.687646 0,3.693476 2.994171,6.687647 6.687646,6.687647 z m 0,1.114608 c 4.309074,0 7.802255,-3.493181 7.802255,-7.802255 0,-4.309073 -3.493181,-7.802254 -7.802255,-7.802254 -4.309073,0 -7.802254,3.493181 -7.802254,7.802254 0,4.309074 3.493181,7.802255 7.802254,7.802255 z"
     fill="#ffffff"
     id="path548"
     style="stroke-width:0.557304" />
  <circle
     cx="18.784966"
     cy="24.055912"
     r="3.3438232"
     fill="#ffffff"
     id="circle550"
     style="stroke-width:0.557304" />
</svg>
